<?xml version="1.0" standalone="no"?>
<!DOCTYPE svg PUBLIC "-//W3C//DTD SVG 20010904//EN"
 "http://www.w3.org/TR/2001/REC-SVG-20010904/DTD/svg10.dtd">
<svg version="1.0" xmlns="http://www.w3.org/2000/svg"
 width="1024.000000pt" height="1024.000000pt" viewBox="0 0 1024.000000 1024.000000"
 preserveAspectRatio="xMidYMid meet">
<metadata>
Created by potrace 1.11, written by Peter Selinger 2001-2013
</metadata>
<g transform="translate(0.000000,1024.000000) scale(0.100000,-0.100000)"
fill="#000000" stroke="none">
<path d="M7615 9362 c-2 -2 -67 -5 -144 -7 -127 -3 -225 -9 -346 -21 -137 -13
-195 -19 -260 -29 -16 -3 -47 -7 -67 -10 -84 -11 -115 -16 -163 -25 -27 -5
-63 -12 -80 -15 -16 -3 -39 -7 -50 -9 -11 -3 -63 -14 -115 -26 -85 -19 -113
-26 -185 -43 -38 -9 -140 -38 -155 -44 -8 -4 -17 -7 -20 -7 -3 -1 -11 -5 -17
-9 -7 -5 -13 -6 -13 -3 0 3 -19 -2 -42 -10 -24 -9 -47 -17 -53 -18 -12 -4 -33
-11 -105 -39 -30 -12 -57 -22 -60 -23 -21 -4 -243 -104 -299 -134 -30 -17 -59
-30 -64 -30 -6 0 -18 -6 -26 -14 -9 -8 -33 -23 -53 -35 -88 -49 -106 -60 -168
-102 -35 -24 -71 -49 -80 -56 -8 -7 -33 -26 -55 -43 -113 -87 -240 -210 -367
-358 -56 -64 -160 -224 -203 -311 -25 -49 -45 -92 -45 -95 0 -4 -9 -25 -19
-49 -19 -41 -55 -156 -65 -207 -3 -14 -7 -36 -10 -50 -3 -14 -9 -45 -12 -70
-3 -25 -8 -54 -11 -65 -3 -11 -6 -101 -8 -200 -3 -160 2 -252 20 -350 3 -16 8
-43 10 -58 21 -137 90 -311 199 -502 15 -27 48 -76 63 -95 7 -8 33 -44 60 -80
45 -61 263 -286 328 -340 174 -141 312 -234 630 -423 17 -9 88 -47 160 -83 71
-36 136 -71 144 -77 8 -7 17 -11 20 -10 3 0 40 -15 81 -34 144 -68 226 -105
405 -184 99 -44 194 -86 210 -93 17 -8 80 -35 140 -61 61 -25 124 -52 140 -59
17 -8 107 -46 200 -86 94 -40 190 -82 215 -94 25 -11 47 -21 50 -22 3 0 18 -6
33 -12 16 -7 33 -12 38 -12 5 0 9 -4 9 -10 0 -5 6 -10 14 -10 11 0 74 -25 151
-60 11 -5 43 -19 70 -31 28 -12 72 -32 99 -45 28 -13 55 -24 62 -24 7 0 14 -3
16 -7 2 -5 62 -37 133 -72 72 -36 148 -76 170 -90 22 -14 61 -37 88 -51 26
-13 47 -28 47 -32 0 -5 5 -8 11 -8 12 0 133 -80 137 -92 2 -4 8 -8 14 -8 6 0
29 -15 52 -32 22 -18 50 -40 60 -48 11 -8 64 -58 117 -110 205 -199 308 -380
345 -610 9 -56 10 -278 1 -345 -33 -240 -151 -468 -325 -625 -83 -75 -87 -79
-159 -127 -140 -93 -431 -213 -603 -247 -14 -3 -34 -7 -45 -9 -81 -19 -179
-37 -225 -42 -30 -4 -66 -9 -80 -11 -235 -39 -805 -50 -1075 -20 -22 3 -67 8
-100 11 -33 3 -91 11 -130 16 -38 6 -86 12 -105 15 -90 11 -90 10 24 84 96 63
315 222 348 253 7 6 36 30 63 52 150 119 384 347 461 447 12 15 24 24 28 21 3
-3 6 -1 6 5 0 7 9 22 20 35 39 41 47 52 112 137 120 157 222 315 310 480 25
47 51 96 59 110 7 14 13 27 14 30 0 3 12 30 27 60 27 55 49 106 54 125 1 6 16
43 33 83 16 39 27 72 24 72 -3 0 -1 6 5 12 8 10 33 86 58 173 33 116 46 163
47 174 1 9 -22 27 -57 44 l-59 28 -540 1 c-417 0 -541 -3 -547 -12 -4 -7 -11
-31 -14 -53 -4 -23 -12 -47 -18 -54 -6 -7 -8 -13 -5 -13 3 0 -14 -55 -38 -122
-57 -164 -68 -192 -80 -200 -5 -4 -7 -8 -3 -8 4 0 -16 -45 -43 -100 -27 -56
-49 -105 -49 -110 0 -6 -4 -10 -8 -10 -4 0 -20 -24 -35 -52 -27 -52 -44 -81
-60 -102 -4 -6 -37 -54 -73 -106 -132 -188 -348 -420 -508 -545 -21 -16 -44
-34 -50 -40 -69 -62 -391 -275 -416 -275 -5 0 -10 -4 -10 -9 0 -5 -8 -12 -19
-16 -10 -3 -55 -25 -100 -49 -44 -24 -81 -42 -81 -40 0 2 -16 -5 -35 -16 -19
-10 -74 -35 -122 -55 -48 -19 -95 -39 -104 -44 -17 -10 -205 75 -323 147 -37
23 -72 42 -77 42 -5 0 -9 5 -9 10 0 6 -6 10 -14 10 -8 0 -21 6 -28 13 -33 32
-78 58 -79 45 -4 -50 -3 -85 4 -100 4 -10 4 -18 0 -18 -10 0 -10 -131 1 -148
4 -6 4 -12 -1 -12 -10 0 -9 -132 1 -148 4 -7 4 -12 -1 -12 -4 0 -8 -58 -8
-130 0 -71 4 -130 8 -130 5 0 5 -5 1 -11 -10 -17 -11 -309 -1 -309 5 0 5 -5 1
-11 -4 -6 -7 -29 -8 -49 -2 -38 -2 -38 79 -78 85 -41 222 -96 228 -90 2 2 11
-3 20 -11 10 -7 17 -11 17 -8 0 3 24 -3 52 -14 29 -10 61 -19 70 -19 10 0 26
-4 36 -10 16 -9 314 -83 377 -93 17 -3 53 -10 80 -16 67 -14 84 -17 125 -25
19 -3 46 -8 60 -11 14 -3 39 -7 55 -9 17 -3 44 -7 60 -10 17 -3 49 -8 73 -11
24 -3 53 -7 65 -10 12 -2 42 -7 67 -10 25 -3 56 -7 70 -9 14 -3 52 -7 85 -11
33 -4 76 -9 95 -11 43 -6 83 -10 185 -19 44 -4 91 -8 104 -10 109 -18 656 -25
886 -12 61 3 110 7 110 7 0 1 27 3 60 5 53 3 129 9 220 19 133 14 173 19 190
22 22 4 75 12 125 18 19 3 50 7 68 10 62 11 87 16 112 21 13 2 42 7 65 10 22
4 56 10 75 15 19 5 46 11 60 14 63 14 152 36 235 60 50 15 100 29 113 31 13 3
66 22 118 41 53 20 101 37 107 38 7 2 32 12 57 23 25 11 70 31 100 44 93 39
347 173 360 189 3 4 21 15 40 26 19 10 37 21 40 24 3 3 48 37 100 77 88 66
228 195 310 287 124 138 277 394 320 536 7 25 17 50 21 55 8 12 52 195 63 265
19 112 26 211 25 355 0 133 -2 162 -14 250 -4 28 -8 60 -10 73 -4 27 -25 121
-33 142 -3 8 -6 21 -8 27 -7 34 -61 167 -97 238 -35 70 -147 249 -183 294
-124 153 -261 297 -374 391 -29 25 -58 50 -64 55 -60 57 -345 253 -511 351
-154 91 -156 92 -215 121 -30 16 -57 30 -60 33 -3 3 -43 23 -90 45 -47 22 -88
44 -91 48 -3 5 -9 8 -13 8 -3 -1 -59 24 -123 55 -65 31 -163 76 -218 101 -55
25 -122 55 -150 68 -27 13 -84 37 -125 55 -41 17 -88 37 -105 45 -16 7 -82 34
-145 59 -63 26 -129 53 -147 61 -17 8 -34 15 -37 15 -6 0 -64 25 -131 55 -16
8 -100 43 -185 79 -85 35 -211 89 -279 120 -69 31 -130 56 -138 56 -7 0 -13 5
-13 10 0 6 -5 10 -12 10 -17 0 -302 141 -306 152 -2 4 -8 8 -14 8 -9 0 -51 23
-206 115 -28 17 -77 49 -82 55 -3 3 -25 18 -50 35 -25 16 -52 36 -61 45 -9 8
-31 26 -49 40 -75 57 -190 182 -253 277 -84 127 -135 263 -154 416 -14 109 -6
367 11 367 5 0 7 3 4 6 -4 3 -2 20 3 37 6 18 12 43 15 56 3 13 12 37 20 52 8
16 11 29 7 29 -5 0 0 5 9 11 14 7 32 -1 85 -38 37 -25 70 -50 73 -53 3 -4 12
-11 21 -16 16 -8 76 -58 137 -113 69 -60 163 -154 222 -221 36 -40 71 -79 78
-86 6 -7 12 -15 12 -19 0 -3 18 -29 40 -58 22 -29 44 -56 48 -62 12 -16 91
-142 114 -183 104 -185 195 -409 259 -642 17 -61 16 -58 18 -75 1 -13 77 -15
622 -15 l621 0 -6 33 c-13 68 -16 83 -22 112 -4 17 -8 39 -10 50 -6 46 -69
267 -110 389 -25 72 -46 136 -48 141 -1 6 -9 24 -16 40 -26 60 -48 111 -71
165 -27 62 -148 292 -171 325 -22 30 -98 148 -98 152 0 2 -6 11 -12 18 -16 18
-22 26 -78 100 -100 134 -306 353 -445 473 -65 56 -283 222 -293 222 -4 1 -20
11 -36 24 l-29 24 59 17 c33 9 68 19 79 22 38 8 50 11 50 13 0 1 9 3 20 5 11
2 31 6 45 9 14 4 39 8 55 11 17 2 41 7 55 9 30 7 97 17 130 21 14 1 43 5 65 8
174 25 278 31 595 30 318 0 521 -9 648 -29 18 -3 54 -7 80 -9 26 -2 58 -6 72
-9 14 -2 48 -7 75 -11 28 -3 59 -8 70 -10 11 -3 36 -7 55 -10 40 -5 48 -7 147
-30 40 -9 77 -14 82 -11 5 4 11 2 13 -2 1 -5 44 -18 93 -30 112 -27 211 -56
275 -80 8 -3 17 -6 20 -7 3 -1 14 -5 25 -9 11 -4 45 -17 75 -28 75 -27 161
-64 250 -106 41 -19 77 -36 80 -36 3 -1 35 -18 72 -39 36 -20 68 -37 70 -37 2
0 4 243 4 540 0 433 -3 540 -13 540 -7 0 -13 5 -13 10 0 6 -3 9 -7 9 -5 -1
-11 0 -15 1 -5 1 -11 3 -15 4 -7 1 -117 40 -183 64 -8 3 -24 7 -34 9 -11 2
-39 10 -63 18 -23 8 -57 17 -75 20 -18 3 -62 13 -98 21 -59 14 -83 19 -145 28
-11 2 -33 6 -50 9 -34 7 -98 17 -135 22 -53 6 -146 17 -175 20 -16 1 -50 5
-75 9 -25 3 -81 8 -125 12 -44 3 -102 8 -130 10 -74 6 -348 17 -442 18 -46 1
-83 5 -83 9 0 5 -5 5 -12 1 -9 -6 -161 -10 -170 -4 -6 3 -130 5 -133 2z"/>
<path d="M26 9178 c-9 -5 -10 -23 -6 -63 3 -31 4 -58 1 -60 -3 -1 -4 -56 -1
-120 3 -64 3 -118 0 -120 -3 -2 -3 -56 0 -120 3 -64 3 -118 0 -120 -3 -2 -3
-55 0 -120 3 -64 1 -120 -3 -124 -5 -5 -3 -12 3 -16 7 -4 274 -7 593 -6 1928
6 2450 4 2707 -14 91 -6 216 -16 245 -20 17 -2 59 -6 95 -10 36 -3 76 -8 90
-10 14 -2 44 -7 68 -10 127 -16 179 -23 202 -30 8 -2 33 -7 55 -10 22 -3 90
-15 152 -28 l112 -23 79 105 c175 233 368 414 615 579 53 36 95 67 93 69 -2 2
-12 6 -22 8 -11 2 -66 16 -124 30 -58 15 -116 29 -130 31 -14 3 -45 10 -70 15
-25 6 -56 13 -70 15 -14 3 -32 7 -41 10 -9 2 -32 7 -50 9 -19 3 -45 7 -59 10
-43 10 -260 45 -268 44 -4 -1 -9 -1 -12 1 -21 8 -293 42 -445 55 -27 3 -75 7
-105 10 -126 11 -287 21 -515 31 -215 9 -3173 11 -3189 2z"/>
<path d="M23 7719 c-11 -4 -13 -8 -6 -12 8 -5 9 -17 3 -36 -4 -16 -6 -32 -3
-34 5 -5 6 -257 1 -262 -2 -2 -1 -56 2 -120 3 -64 3 -118 0 -120 -3 -2 -3 -56
0 -120 3 -64 3 -118 0 -120 -3 -2 -3 -56 0 -120 3 -64 3 -118 0 -120 -3 -2 -3
-56 0 -120 3 -64 3 -118 0 -120 -3 -2 -3 -56 0 -120 3 -64 3 -118 0 -120 -3
-2 -3 -56 0 -120 3 -64 3 -118 0 -120 -3 -2 -3 -56 0 -120 3 -64 3 -118 0
-120 -3 -2 -3 -56 0 -120 3 -64 3 -118 0 -120 -3 -2 -3 -56 0 -120 3 -64 3
-118 0 -120 -3 -2 -3 -56 0 -120 3 -64 3 -118 0 -120 -3 -2 -3 -56 0 -120 3
-64 3 -118 0 -120 -3 -2 -3 -56 0 -120 3 -64 3 -118 0 -120 -3 -2 -3 -56 0
-120 3 -64 3 -118 0 -120 -3 -2 -3 -56 0 -120 3 -64 3 -118 0 -120 -3 -2 -3
-56 0 -120 3 -64 3 -118 0 -120 -3 -2 -3 -56 0 -120 3 -64 3 -118 0 -120 -3
-2 -3 -56 0 -120 3 -64 3 -118 0 -120 -3 -2 -3 -56 0 -120 3 -64 3 -118 0
-120 -3 -2 -3 -56 0 -120 3 -64 3 -118 0 -120 -3 -2 -3 -56 0 -120 3 -64 3
-118 0 -120 -3 -2 -4 -46 -2 -99 l3 -96 577 3 577 2 0 2663 c1 1679 -3 2666
-9 2669 -12 8 -1122 10 -1143 2z"/>
<path d="M3970 1974 c-49 -13 -70 -17 -145 -28 -112 -16 -164 -25 -192 -30
-12 -3 -50 -7 -85 -11 -35 -3 -75 -8 -90 -11 -14 -2 -59 -6 -100 -9 -40 -3
-91 -8 -113 -10 -171 -17 -468 -20 -1755 -19 -1210 1 -1466 -1 -1470 -12 -3
-7 -3 -61 0 -119 3 -59 3 -108 0 -110 -3 -2 -3 -56 0 -120 3 -64 3 -118 0
-120 -3 -2 -3 -56 0 -120 3 -64 3 -118 0 -120 -3 -2 -3 -36 0 -77 l5 -73 1445
1 c1451 1 1656 4 1925 29 33 3 85 7 115 10 30 3 75 8 100 10 25 3 65 8 90 10
25 3 63 8 85 11 22 4 54 8 70 10 55 7 120 18 175 29 8 2 20 4 25 4 7 1 9 151
8 433 -1 238 -2 439 -2 446 -1 15 -20 14 -91 -4z"/>
</g>
</svg>
