<svg xmlns="http://www.w3.org/2000/svg" viewBox="0 0 54 54"><g><path d="M27 53C12.64 53 1 41.36 1 27S12.64 1 27 1s26 11.64 26 26-11.64 26-26 26z"/><path d="M27 54C12.112 54 0 41.888 0 27S12.112 0 27 0s27 12.112 27 27-12.112 27-27 27zm0-52C13.215 2 2 13.215 2 27s11.215 25 25 25 25-11.215 25-25S40.785 2 27 2z"/></g><path d="M22.294 40c-.256 0-.512-.098-.707-.293a1 1 0 0 1 0-1.414L32.88 27 21.587 15.707a1 1 0 0 1 1.414-1.414L34.5 25.79a1.71 1.71 0 0 1 0 2.418L23 39.707c-.195.195-.45.293-.707.293z" fill="#fff"/></svg>